<mxfile host="app.diagrams.net" modified="2023-11-07T08:15:32.490Z" agent="Mozilla/5.0 (Windows NT 10.0; Win64; x64) AppleWebKit/537.36 (KHTML, like Gecko) Chrome/93.0.4577.63 Safari/537.36 Edg/93.0.961.47" etag="qcA3GK3HQpUH6N3UoEH4" version="22.0.8" type="github">
  <diagram name="第 1 页" id="FLkAOsLT7iO2a4BBhR67">
    <mxGraphModel dx="1290" dy="580" grid="1" gridSize="10" guides="1" tooltips="1" connect="1" arrows="1" fold="1" page="1" pageScale="1" pageWidth="827" pageHeight="1169" math="0" shadow="0">
      <root>
        <mxCell id="0" />
        <mxCell id="1" parent="0" />
        <mxCell id="PzAyz-eWW4mwkM4bqs8N-9" style="edgeStyle=orthogonalEdgeStyle;rounded=0;orthogonalLoop=1;jettySize=auto;html=1;entryX=0;entryY=0.5;entryDx=0;entryDy=0;" edge="1" parent="1" source="PzAyz-eWW4mwkM4bqs8N-1" target="PzAyz-eWW4mwkM4bqs8N-2">
          <mxGeometry relative="1" as="geometry" />
        </mxCell>
        <mxCell id="PzAyz-eWW4mwkM4bqs8N-1" value="开始" style="rounded=1;whiteSpace=wrap;html=1;" vertex="1" parent="1">
          <mxGeometry x="40" y="120" width="120" height="60" as="geometry" />
        </mxCell>
        <mxCell id="PzAyz-eWW4mwkM4bqs8N-10" style="edgeStyle=orthogonalEdgeStyle;rounded=0;orthogonalLoop=1;jettySize=auto;html=1;entryX=0;entryY=0.5;entryDx=0;entryDy=0;" edge="1" parent="1" source="PzAyz-eWW4mwkM4bqs8N-2" target="PzAyz-eWW4mwkM4bqs8N-3">
          <mxGeometry relative="1" as="geometry" />
        </mxCell>
        <mxCell id="PzAyz-eWW4mwkM4bqs8N-2" value="右键点击特征历史数某一节点" style="rounded=0;whiteSpace=wrap;html=1;" vertex="1" parent="1">
          <mxGeometry x="200" y="120" width="120" height="60" as="geometry" />
        </mxCell>
        <mxCell id="PzAyz-eWW4mwkM4bqs8N-11" style="edgeStyle=orthogonalEdgeStyle;rounded=0;orthogonalLoop=1;jettySize=auto;html=1;entryX=0;entryY=0.5;entryDx=0;entryDy=0;" edge="1" parent="1" source="PzAyz-eWW4mwkM4bqs8N-3" target="PzAyz-eWW4mwkM4bqs8N-4">
          <mxGeometry relative="1" as="geometry" />
        </mxCell>
        <mxCell id="PzAyz-eWW4mwkM4bqs8N-3" value="弹出菜单栏并按下删除按钮" style="rounded=0;whiteSpace=wrap;html=1;" vertex="1" parent="1">
          <mxGeometry x="360" y="120" width="120" height="60" as="geometry" />
        </mxCell>
        <mxCell id="PzAyz-eWW4mwkM4bqs8N-12" style="edgeStyle=orthogonalEdgeStyle;rounded=0;orthogonalLoop=1;jettySize=auto;html=1;entryX=0.5;entryY=0;entryDx=0;entryDy=0;" edge="1" parent="1" source="PzAyz-eWW4mwkM4bqs8N-4" target="PzAyz-eWW4mwkM4bqs8N-5">
          <mxGeometry relative="1" as="geometry" />
        </mxCell>
        <mxCell id="PzAyz-eWW4mwkM4bqs8N-4" value="根据字典Map找到对应特征" style="rounded=0;whiteSpace=wrap;html=1;" vertex="1" parent="1">
          <mxGeometry x="520" y="120" width="120" height="60" as="geometry" />
        </mxCell>
        <mxCell id="PzAyz-eWW4mwkM4bqs8N-13" style="edgeStyle=orthogonalEdgeStyle;rounded=0;orthogonalLoop=1;jettySize=auto;html=1;entryX=0.5;entryY=0;entryDx=0;entryDy=0;" edge="1" parent="1" source="PzAyz-eWW4mwkM4bqs8N-5" target="PzAyz-eWW4mwkM4bqs8N-8">
          <mxGeometry relative="1" as="geometry" />
        </mxCell>
        <mxCell id="PzAyz-eWW4mwkM4bqs8N-14" value="是" style="edgeLabel;html=1;align=center;verticalAlign=middle;resizable=0;points=[];" vertex="1" connectable="0" parent="PzAyz-eWW4mwkM4bqs8N-13">
          <mxGeometry x="0.336" y="3" relative="1" as="geometry">
            <mxPoint x="17" y="-3" as="offset" />
          </mxGeometry>
        </mxCell>
        <mxCell id="PzAyz-eWW4mwkM4bqs8N-16" style="edgeStyle=orthogonalEdgeStyle;rounded=0;orthogonalLoop=1;jettySize=auto;html=1;entryX=1;entryY=0.5;entryDx=0;entryDy=0;" edge="1" parent="1" source="PzAyz-eWW4mwkM4bqs8N-5" target="PzAyz-eWW4mwkM4bqs8N-7">
          <mxGeometry relative="1" as="geometry" />
        </mxCell>
        <mxCell id="PzAyz-eWW4mwkM4bqs8N-17" value="否" style="edgeLabel;html=1;align=center;verticalAlign=middle;resizable=0;points=[];" vertex="1" connectable="0" parent="PzAyz-eWW4mwkM4bqs8N-16">
          <mxGeometry x="-0.16" relative="1" as="geometry">
            <mxPoint x="5" y="-10" as="offset" />
          </mxGeometry>
        </mxCell>
        <mxCell id="PzAyz-eWW4mwkM4bqs8N-5" value="特征是否&lt;br&gt;被依赖" style="rhombus;whiteSpace=wrap;html=1;" vertex="1" parent="1">
          <mxGeometry x="540" y="210" width="80" height="80" as="geometry" />
        </mxCell>
        <mxCell id="PzAyz-eWW4mwkM4bqs8N-6" value="结束" style="rounded=1;whiteSpace=wrap;html=1;" vertex="1" parent="1">
          <mxGeometry x="200" y="220" width="120" height="60" as="geometry" />
        </mxCell>
        <mxCell id="PzAyz-eWW4mwkM4bqs8N-18" style="edgeStyle=orthogonalEdgeStyle;rounded=0;orthogonalLoop=1;jettySize=auto;html=1;entryX=1;entryY=0.5;entryDx=0;entryDy=0;" edge="1" parent="1" source="PzAyz-eWW4mwkM4bqs8N-7" target="PzAyz-eWW4mwkM4bqs8N-6">
          <mxGeometry relative="1" as="geometry" />
        </mxCell>
        <mxCell id="PzAyz-eWW4mwkM4bqs8N-7" value="特征容器删除特征并更新视图" style="rounded=0;whiteSpace=wrap;html=1;" vertex="1" parent="1">
          <mxGeometry x="360" y="220" width="120" height="60" as="geometry" />
        </mxCell>
        <mxCell id="PzAyz-eWW4mwkM4bqs8N-19" style="edgeStyle=orthogonalEdgeStyle;rounded=0;orthogonalLoop=1;jettySize=auto;html=1;entryX=0.5;entryY=1;entryDx=0;entryDy=0;" edge="1" parent="1" source="PzAyz-eWW4mwkM4bqs8N-8" target="PzAyz-eWW4mwkM4bqs8N-6">
          <mxGeometry relative="1" as="geometry" />
        </mxCell>
        <mxCell id="PzAyz-eWW4mwkM4bqs8N-8" value="弹出提示对话框提示删除失败" style="rounded=0;whiteSpace=wrap;html=1;" vertex="1" parent="1">
          <mxGeometry x="520" y="320" width="120" height="60" as="geometry" />
        </mxCell>
      </root>
    </mxGraphModel>
  </diagram>
</mxfile>
